<svg id="if_device-tablet-ipad-vertical-glyph_763398" xmlns="http://www.w3.org/2000/svg" width="30.218" height="36.642" viewBox="0 0 30.218 36.642">
  <g id="Artboard-1" transform="translate(0 0)">
    <path id="device-tablet-ipad-vertical-glyph" d="M327,627.331v29.98c0,3.331,3.892,3.331,3.892,3.331h22.434s3.892,0,3.892-3.331v-29.98c0-3.331-3.892-3.331-3.892-3.331H330.892S327,624,327,627.331Zm1.889.057v26.534c0,1.723,2.1,1.723,2.1,1.723h22.244s2.1,0,2.1-1.723V627.389c0-1.723-2.1-1.723-2.1-1.723H330.987S328.889,625.666,328.889,627.389Zm14.635,30.745a1.481,1.481,0,1,0-1.463,1.249A1.369,1.369,0,0,0,343.524,658.134Z" transform="translate(-327 -624)" fill="#d22300" fill-rule="evenodd"/>
  </g>
</svg>
